<?xml version="1.0" encoding="UTF-8" standalone="no"?>
<!-- Created with Inkscape (http://www.inkscape.org/) -->

<svg
   xmlns:dc="http://purl.org/dc/elements/1.1/"
   xmlns:cc="http://creativecommons.org/ns#"
   xmlns:rdf="http://www.w3.org/1999/02/22-rdf-syntax-ns#"
   xmlns:svg="http://www.w3.org/2000/svg"
   xmlns="http://www.w3.org/2000/svg"
   xmlns:sodipodi="http://sodipodi.sourceforge.net/DTD/sodipodi-0.dtd"
   xmlns:inkscape="http://www.inkscape.org/namespaces/inkscape"
   width="200"
   height="45"
   id="svg3086"
   version="1.1"
   inkscape:version="0.48.2 r9819"
   sodipodi:docname="leaf.svg">
  <defs
     id="defs3088" />
  <sodipodi:namedview
     id="base"
     pagecolor="#ffffff"
     bordercolor="#666666"
     borderopacity="1.0"
     inkscape:pageopacity="0.0"
     inkscape:pageshadow="2"
     inkscape:zoom="15.841949"
     inkscape:cx="15.873536"
     inkscape:cy="21.387343"
     inkscape:document-units="px"
     inkscape:current-layer="layer1"
     showgrid="false"
     fit-margin-top="0"
     fit-margin-left="0"
     fit-margin-right="0"
     fit-margin-bottom="0"
     inkscape:window-width="1050"
     inkscape:window-height="1658"
     inkscape:window-x="-8"
     inkscape:window-y="-8"
     inkscape:window-maximized="1" />
  <metadata
     id="metadata3091">
    <rdf:RDF>
      <cc:Work
         rdf:about="">
        <dc:format>image/svg+xml</dc:format>
        <dc:type
           rdf:resource="http://purl.org/dc/dcmitype/StillImage" />
        <dc:title></dc:title>
      </cc:Work>
    </rdf:RDF>
  </metadata>
  <g
     inkscape:label="Ebene 1"
     inkscape:groupmode="layer"
     id="layer1"
     transform="translate(0.10097365,-0.17823038)">
    <path
       inkscape:connector-curvature="0"
       id="rect3753-1"
       d="m 19.711527,0.16812345 -19.81250065,0 0,19.88510655 C 13.522217,23.37062 28.873227,32.22933 42.492787,45.17823 l 11.6875,0 c -5.32476,-12.47958 -13.27607,-22.86068 -19.65626,-28.09375 17.27895,4.79373 34.22471,12.49581 50.12501,28.09375 l 9.78125,0 c -6.40049,-13.88265 -15.7524,-23.61324 -24.21875,-29.53125 19.42731,5.80823 36.603603,13.60071 54.374993,29.53125 l 5.34375,0 C 122.19829,29.93411 110.09536,15.55385 99.71154,9.6782304 119.84226,15.31238 136.403,23.12735 159.71153,42.30323 148.77762,23.11761 134.94685,8.0767304 124.68028,2.9594804 143.5216,12.67471 167.55577,22.48481 196.77403,18.39698 177.46679,15.41938 163.441,6.6491704 154.74278,0.17823038 l -49.96875,0 z M -0.10097365,22.70948 l 0,4.625 0,12.78125 c 2.20350995,1.59154 4.37853995,3.28288 6.50000035,5.0625 l 8.6875003,0 C 10.702577,36.34523 5.1200863,28.00412 -0.10097365,22.70948 z"
       style="fill:#a0ae32;fill-opacity:1;stroke:none"
       inkscape:export-filename="\\data\server\produktion\papaya5\work\grafiken\Administration Interface\leaf.png"
       inkscape:export-xdpi="90"
       inkscape:export-ydpi="90"
       sodipodi:nodetypes="cccccccccccccccccccccccc" />
  </g>
</svg>
